<svg xmlns="http://www.w3.org/2000/svg" viewBox="0 0 1712.85 1704.65"><defs><style>.cls-1{fill:#f2762f;}.cls-2{fill:#29bab4;}.cls-3{fill:#55ac63;}.cls-4{fill:#54ac63;}.cls-5{fill:#78be51;}.cls-6{fill:#78be50;}.cls-7{fill:#77be50;}</style></defs><title>Logo_min</title><g id="Layer_2" data-name="Layer 2"><g id="Layer_1-2" data-name="Layer 1"><path class="cls-1" d="M577.6,1274.2l-25.28-45.36c1.13-1.15,1.92-2.48,3.08-3,20.74-9.85,41.4-19.83,63-27.75,16.47-6,33-11.67,49.87-16.52a471.17,471.17,0,0,1,61.88-13.87c14.44-2.13,28.85-4.57,43.35-6.15,13.43-1.47,27-1.94,40.44-2.93,4.71-.35,9.39-.94,13.87-1.4,1.53-7.85,1.92-69.86.62-89-4.67-2.42-9.75-5.18-14.94-7.71a563.47,563.47,0,0,1-71.87-41.92,599.84,599.84,0,0,1-66.17-52.29c-18-16.51-34.52-34.72-51.34-52.49-7.25-7.66-13.63-16.12-20.51-24.34C624.15,830,644.45,771,665,712.09s41.21-117.8,61.92-176.93c-4.68-7.7-11.22-13.5-17.79-19.2-28-24.29-60.58-39-96.52-46.86-15.76-3.45-31.81-4.46-47.87-5.21a391.82,391.82,0,0,0-93.77,7.31c-3.92.76-7.84,1.55-11.74,2.44-.61.14-1.07.91-2.25,2,3.27,18.92,9.45,37.56,13.77,56.13,3.59,2.61,6.91,1.47,10.08,1.28,20.78-1.26,41.55-2.63,62.33-3.89q11-.66,21.91-1a381.85,381.85,0,0,1,56.87,2.67c7.24.86,14.5,1.64,21.73,2.67,3.18.45,6.29,1.4,10.07,2.28-1.46,11-5.76,20.71-8.48,30.76-2.66,9.83-5.81,19.51-8.9,29.77-4.84-.58-9.06-1.23-13.31-1.56-11.65-.91-23.29-2.19-35-2.41-31.08-.61-62.14.7-93.12,3.08-23.63,1.82-47.2,4.53-70.92,6.86a3.82,3.82,0,0,1-.77-.48,2.35,2.35,0,0,1-.65-.88,41.43,41.43,0,0,1-1.32-4.14q-20.06-81.27-40-162.57c-.15-.61.34-1.38.69-2.63a20.3,20.3,0,0,1,3.33-1.9c26.43-9.6,53.32-17.57,81-22.74a454,454,0,0,1,115.67-6.39,310.92,310.92,0,0,1,72.94,14.11,272.77,272.77,0,0,1,45.46,18.81c26.33,14.06,50,31.53,69.13,54.72,6.74,8.18,13.45,16.38,20.47,24.31,4.14,4.68,4.53,9.12,2.44,15-14,39.58-27.52,79.3-41.23,119q-21.46,62.09-43,124.16c-11.28,32.4-22.73,64.74-34,97.12a50.67,50.67,0,0,0-1.37,6.45c10.63,12.31,22.28,23.34,33.6,34.7,6.77,6.79,13.84,9.06,23.21,9q129.4-.43,258.8-.06c5.14,0,8.94-1.34,12.55-5,10.22-10.45,20.82-20.52,31.16-30.85,2.55-2.54,4.69-5.5,7.23-8.52Q978.23,697.25,917.1,521a64.74,64.74,0,0,1,3.53-6.23c22.47-31.79,50.31-57.85,84-77.34a253,253,0,0,1,50.92-22.58c35.91-11.31,72.58-15.84,110.13-15.29,21.61.31,43.1,1.4,64.4,5,25.6,4.26,50.91,9.79,75.53,18.13l24,8.16a15.08,15.08,0,0,1,1.05,1.71,2,2,0,0,1,.15,1.08C1316.92,489.57,1303,545.5,1289,602a51.28,51.28,0,0,1-6.56,0c-29.34-4.11-58.86-6.28-88.4-8.16-29.92-1.91-59.89-2.51-89.84-.67-9.07.55-18.08,2-27.81,3.09-4.58-9.08-6.33-19.55-9.92-29.35-3.51-9.56-6-19.52-9.06-29.92,1.84-1,3.57-2.53,5.47-2.77,14.12-1.81,28.25-3.53,42.41-4.92a182.16,182.16,0,0,1,23-1c24.1.68,48.19,1.64,72.27,2.74,13.1.6,26.18,1.71,39.91,2.63,4.26-9.37,5-19.63,7.65-29.33s5.26-19.55,6.39-29.48c-1.81-.91-2.71-1.65-3.72-1.84-22.66-4.11-45.38-7.84-68.43-8.93-25.27-1.19-50.54-.3-75.43,3.95-38.49,6.57-73.5,21.48-103.19,47.49-4.39,3.85-8.18,8.39-12.62,12.17-4.92,4.19-5.66,8.56-3.3,14.57,4.26,10.86,7.8,22,11.62,33Q1052.21,727.93,1105,880.57c.83,2.41,1.51,4.87,2.3,7.46-1.18,4.37-4.33,7.59-7.14,10.81-16.35,18.71-32.41,37.68-50.41,54.9a577.54,577.54,0,0,1-65.59,54.73c-8,5.7-16.16,11.3-24.19,17-22.11,15.76-46,28.26-70.68,39.47-2.29,1-4.5,2.26-6.49,3.26-1.24,8.08-1.07,79.44.25,88.69,4.78.59,9.78,1.51,14.81,1.77,23.36,1.22,46.67,3,69.77,6.67a654.76,654.76,0,0,1,130.87,35c19.82,7.59,38.59,17.44,58.18,25.46.94.38,1.6,1.42,2.82,2.55l-24.79,44.58c-1.5,0-2.77.39-3.59,0-24.52-13.17-50.39-23.14-76.63-32.21-39.55-13.65-80.46-21.31-121.84-26.16-34.49-4-69.17-5.9-104-4.07a735.32,735.32,0,0,0-125.75,17.36,478.08,478.08,0,0,0-63.73,19.81c-16.7,6.36-33,13.75-49.47,20.78C585.8,1269.94,582,1272.05,577.6,1274.2Z"/><path class="cls-2" d="M473.26,768.31c-10.38,17.69-20.14,34.44-32.34,49.51-17.76,21.94-37.38,41.94-61.55,57.12-23,14.43-47.89,23.06-74.55,27.25-21.53,3.38-42.94,2.33-64.35-1.05-30.14-4.75-58.67-14.39-86.42-27C108.82,853.6,67.89,826.4,29.38,795.35,19.19,787.14,9,778.81,0,769.12c.88-4.27,4.24-6.18,6.94-8.43,22.14-18.48,44.1-37.17,68-53.42,33.07-22.47,67.88-41.62,105.21-55.92C213.52,638.58,248,631.27,284,632.57a188.56,188.56,0,0,1,62.93,12.94c31.25,12.32,57.13,31.81,79.79,56.33C445.2,721.86,459.41,744.67,473.26,768.31Z"/><path class="cls-2" d="M1239.24,767.7a395.59,395.59,0,0,1,29.2-45.54c20-26.57,43.64-49.15,72.69-65.64a183.66,183.66,0,0,1,62.81-21.72c27.42-4.29,54.55-2.37,81.63,3.07,34.75,7,66.73,21.06,98,37.23,32.21,16.69,62,37,90.41,59.55,11.72,9.3,23,19.21,34.42,28.8,1.41,1.18,3,2.14,4.45,3.18-2,5-5.33,7.3-8.21,9.88a669.37,669.37,0,0,1-61.85,48.87,544,544,0,0,1-96.47,53.85,297.06,297.06,0,0,1-85.26,23.17c-6.53.73-13.08,1.51-19.63,1.69a194.47,194.47,0,0,1-90.21-19,201.08,201.08,0,0,1-49.51-34c-25.33-23.23-44.56-51.12-61.6-80.68A16.14,16.14,0,0,1,1239.24,767.7Z"/><path class="cls-2" d="M856.87,0c4.91,5.42,10,10.56,14.59,16.19,10.78,13.34,21.59,26.69,31.85,40.45,23.27,31.2,41.91,65.14,56.73,101,12.51,30.28,19.67,62,19.58,94.92-.1,37.21-10.71,71.2-32.35,101.67-16.29,22.94-36.61,41.64-59.8,57.31-10,6.73-20.27,13-30.6,19.57-8.52-4-16.13-9-23.79-13.83-23.66-14.93-44.65-32.95-62.14-54.85A172,172,0,0,1,736.82,292c-4.7-21.09-6.07-42.52-3-64.2a321.45,321.45,0,0,1,10.42-48.11c6-19.63,14.74-38.08,23.73-56.44,13.22-27,29.7-52,47.63-76,10-13.45,21-26.19,31.76-39.12C849.89,5.13,852.48,2,856.87,0Z"/><path class="cls-2" d="M856,1273.64c18.89,11.35,37,22.29,53.26,36,19.47,16.38,36.17,35.15,48.55,57.4a172.5,172.5,0,0,1,20.55,64.22c3.64,30.7-.92,60.4-9.26,89.78-7.22,25.44-18.53,49.18-31.07,72.28-21.72,40-48.61,76.33-79.14,110a10.6,10.6,0,0,1-2,1.31c-3.34.27-5-2.53-6.72-4.62-10.33-12.3-20.83-24.47-30.65-37.17a490.61,490.61,0,0,1-35.13-51.58c-17-29-32.17-59-41.61-91.44-6.86-23.59-11.33-47.58-10.39-72.29,1.41-37.13,12.7-70.84,35.06-100.75,18.66-25,42.15-44.37,68.31-60.84C842.23,1281.85,848.83,1278,856,1273.64Z"/><path class="cls-3" d="M182.22,1188.36c4.32-15.12,10.29-29.21,16.4-43.24,15.82-36.34,35.48-70.44,60-101.6,13.17-16.72,28.66-31.2,45.16-44.57,18.1-14.67,38.36-25.55,60.91-31.38,19.16-4.94,38.62-7.17,58.6-4.51,30.57,4.06,58.66,14.6,85,30.2,5,3,10,6,15.11,9,1.6,5.58.52,11,.26,16.44-1.15,24.16-4.66,47.9-12.84,70.82q-20.34,57-72.83,87.15c-21.23,12.2-44.56,18-68.06,23.5-17.91,4.19-36.19,5.11-54.43,5-20.43-.17-41-.76-61.27-2.81a424,424,0,0,1-67.8-12.38C185.15,1189.55,183.86,1189,182.22,1188.36Z"/><path class="cls-4" d="M1187.51,1003c23.91-15.15,48.46-27.83,75.53-35a170.84,170.84,0,0,1,48.77-6,155.61,155.61,0,0,1,63.32,15.73c19.66,9.46,36.33,22.9,52.12,37.7a291.39,291.39,0,0,1,37.32,42.9c25.08,34.94,44.09,73.07,59.62,113,2.08,5.34,4.72,10.65,4.57,17.43a74.78,74.78,0,0,1-8,2.76,558.54,558.54,0,0,1-59.24,10.65,461.33,461.33,0,0,1-71.09,2.78c-8.76-.29-17.55-.53-26.25-1.49-18.19-2-35.87-6.47-53.43-11.56a165.66,165.66,0,0,1-43-18.87c-24.26-15.37-43.35-35.49-56.71-61.07s-20-53.17-22.26-81.84C1188.16,1021.43,1188,1012.68,1187.51,1003Z"/><path class="cls-5" d="M317.86,1505c.23-12.17-.17-23,1.49-33.92,2.25-14.79,4.44-29.56,7.66-44.18,7.93-36.06,21-70,43.2-99.76,19.67-26.4,45.42-44.42,78.05-50.87a143.21,143.21,0,0,1,45.73-2.11,331.08,331.08,0,0,1,39.73,7.51c3.16.79,5,2.37,5.88,5.61,7.57,27.41,10.8,55.2,6.34,83.42a116.36,116.36,0,0,1-22.71,52.8,144.78,144.78,0,0,1-33,31.75c-24.66,17-51.69,28.58-80.45,36.34A415.25,415.25,0,0,1,323.32,1505C321.93,1505.07,320.53,1505,317.86,1505Z"/><path class="cls-6" d="M1646.82,257.44a327.26,327.26,0,0,1-10.91,36c-10.75,30-24.14,58.79-42.34,85.08-11.89,17.17-25.48,32.92-42.12,45.78-35.43,27.37-74.75,34.91-117.84,23-14.47-4-28.26-9.76-41.85-16.14-6.66-3.13-10-6.86-9.84-14.88.33-20.53,1.58-40.87,7-60.75,9.42-34.55,30.15-60.53,61-78.22,20.45-11.73,42.84-18.24,66-22.45,28.63-5.2,57.44-4.76,86.31-3.85,4,.12,8,.7,12,1.2,8.69,1.09,17.38,2.21,26,3.45A53.88,53.88,0,0,1,1646.82,257.44Z"/><path class="cls-7" d="M1174.22,1282.7c7-1.82,12.9-3.71,19-4.86,15.43-2.95,31-5.12,46.74-4.57,44.8,1.57,79.26,21.89,105,58.12,18.89,26.61,30.59,56.45,38.41,87.71,5,20.1,8.84,40.6,9.84,61.47.36,7.6,2.17,15.14,1,23.46-2,.38-4,1.22-6,1.07-23.67-1.72-47.15-4.62-70.37-9.88-32.31-7.31-63-18.32-90.87-36.5s-48.1-42.38-57.58-74.62a132.17,132.17,0,0,1-4.77-26.84c-1.87-23.51,1.58-46.59,7.43-69.33A36.48,36.48,0,0,1,1174.22,1282.7Z"/><path class="cls-6" d="M65.89,257a397.66,397.66,0,0,1,104-5.9c26.66,2,52.74,7.52,77.29,18.55,38.46,17.28,64.76,45.35,76,86.63a153.32,153.32,0,0,1,5.89,38.83c.09,8.76.23,17.51.35,26.26a7.48,7.48,0,0,1-4.36,7c-26.73,14.36-54.83,24.27-85.53,24.15-31.19-.12-58.53-11.34-82.34-31.15A205.1,205.1,0,0,1,120.4,381c-23.27-33.2-39.72-69.69-50.92-108.59-1.11-3.86-2.49-7.63-3.54-11.5A15.06,15.06,0,0,1,65.89,257Z"/></g></g></svg>